<svg xmlns="http://www.w3.org/2000/svg" viewBox="0 0 417.78 126.11"><defs><style>.cls-1{fill:#fff;}.cls-2{fill:#f37032;}</style></defs><title>LOGO BEFOYS White</title><g id="Layer_2" data-name="Layer 2"><g id="Layer_1-2" data-name="Layer 1"><path class="cls-1" d="M77.09,61.19c-.51,3.71-.75,6.94-1.4,10.08-1.66,8-4.93,15.17-11.22,20.58-8.79,7.58-18.93,8.32-29.31,4.43C16.37,89.24,5.61,75.07,1,55.9A32.09,32.09,0,0,1,.88,40.44c3.26-13,14.64-18.9,27-13.74,3.56,1.48,6.77,3.81,10.06,5.87.49.3.58,1.27.85,1.93a6.88,6.88,0,0,1-2.09-.09c-3.62-1.33-7.11-3.48-10.83-4C17.77,29.28,11,34.92,9.74,43.18,7.92,55.48,12.45,65.83,20.13,75A33.62,33.62,0,0,0,39.68,87c14.06,2.79,22-4.93,24.76-16.58,1-4.32,1.1-8.86,2.06-13.2,1.64-7.38,7.24-10.1,14-6.69,3.31,1.66,6.1,4.33,9.35,6.14a37.72,37.72,0,0,0,9.33,3.92c6.54,1.55,11.66-2,12.67-8.7A34.85,34.85,0,0,0,112.21,41c-1.13-6.51-3.1-12.87-4.66-19.31C107,19.45,106,19.14,103.91,20q-38.11,16-76.29,31.9c-1.79.75-3.56,1.6-5.41,2.19a9.1,9.1,0,0,1-2.8,0c.56-.66,1-1.58,1.72-1.95Q43.26,40.85,65.44,29.68q19-9.62,38-19.27c5.06-2.57,8.57-1.32,10.69,3.89,4,9.8,7.06,19.85,7.82,30.48.44,6.2-.29,12.23-3.55,17.62-5.38,8.88-15.88,12-26.3,7.52-4.22-1.8-8-4.5-12-6.8C79.16,62.6,78.31,62,77.09,61.19Z"/><path class="cls-2" d="M56.4,126.11c-18.63-.31-34.5-8.69-46.8-24.2-1-1.32-2-2.85-.52-4.36s3-.7,4.34.38a76,76,0,0,0,29.47,14.58c25.94,6.32,53.89-2.08,70.7-23.52,3-3.88,5.38-8.29,8.1-12.42a10.15,10.15,0,0,1,1.76-1.7,6.9,6.9,0,0,1,.27,2.58,68.78,68.78,0,0,1-25.35,34.93C86.32,121.24,72.77,125.94,56.4,126.11Z"/><path class="cls-1" d="M182.35,50.5c6.5,6.82,5.19,15.26.7,19.88a13,13,0,0,1-9.46,4.35c-7.81,0-15.62,0-23.43,0-.4,0-.81,0-1.41-.09V26.41c.12-.06.33-.25.55-.25,8.29,0,16.59-.08,24.88.18,5.46.17,9.29,3.22,11.45,8.15a13.36,13.36,0,0,1-1.54,13.82C183.58,49,183,49.71,182.35,50.5Zm-26.46,3.67v13.7c5.91,0,11.59.14,17.26-.05a6.92,6.92,0,0,0,6.68-6.77c.1-3.22-2.29-6.65-5.41-6.79C168.28,54,162.13,54.17,155.89,54.17Zm-.09-7.32c6.23,0,12.3.17,18.36-.07,3.2-.13,5.72-3.56,5.66-6.88s-2.56-6.48-5.68-6.6c-6.06-.24-12.13-.07-18.34-.07Z"/><path class="cls-1" d="M201,33.11V46.79h24V54H201v13.8h30.94v6.83h-37.8V26.28h37.82v6.83Z"/><path class="cls-1" d="M302.8,26.2c13-.22,24.34,10.56,24.52,23.36.2,14-10.24,25-24.1,25.3a24.33,24.33,0,1,1-.42-48.66ZM285.67,50.63a17.29,17.29,0,1,0,16.91-17.47A17.34,17.34,0,0,0,285.67,50.63Z"/><path class="cls-1" d="M379.74,74.78V67.89h2.51c7.17,0,14.33,0,21.49,0a7.08,7.08,0,0,0,7.1-6.14A7,7,0,0,0,406,54.42a14.93,14.93,0,0,0-3.62-.32c-3.57-.14-7.17,0-10.72-.39-7.1-.7-12.06-6.68-12-14.14.06-6.73,5.42-12.91,12.21-13.19,8.52-.35,17.07-.08,25.78-.08v6.85H394.27c-4.58,0-7.7,2.87-7.74,7,0,3.86,3.21,6.67,7.7,6.77,4.22.09,8.51-.16,12.63.53,7.17,1.21,11.49,7.66,10.86,15.3a13.53,13.53,0,0,1-12.76,12C396.61,75,388.24,74.78,379.74,74.78Z"/><path class="cls-1" d="M239.26,26.26h38v6.82H246.35V46.86h23.88v7.08h-24V74.63h-7Z"/><path class="cls-1" d="M365.51,26.31h7.16c0,5.72.05,11.24,0,16.75a42.22,42.22,0,0,1-.58,8.73c-1.58,7-6,11.71-12.82,14.09l-2.22.76v8h-7.09v-8c-7.57-2-12.71-6.42-14.92-13.85a14,14,0,0,1-.7-3.82c-.07-7.48,0-15,0-22.65h7.13c0,1,0,1.82,0,2.68,0,6.43-.06,12.86,0,19.29.12,6.63,5.42,11.44,12.33,11.39a11.85,11.85,0,0,0,11.7-11.6c.06-3.58,0-7.17,0-10.75Z"/><path class="cls-1" d="M124.77,11.26a5.43,5.43,0,0,1-4-1.64,5.41,5.41,0,0,1-1.65-4,5.44,5.44,0,0,1,1.65-4,5.64,5.64,0,0,1,8,0,5.44,5.44,0,0,1,1.65,4,5.41,5.41,0,0,1-1.65,4A5.42,5.42,0,0,1,124.77,11.26Zm0-10.38a4.62,4.62,0,0,0-3.37,1.39A4.58,4.58,0,0,0,120,5.64,4.55,4.55,0,0,0,121.41,9a4.76,4.76,0,0,0,6.72,0,4.58,4.58,0,0,0,1.38-3.35,4.61,4.61,0,0,0-1.38-3.37A4.59,4.59,0,0,0,124.78.88Zm2.72,8.19h-1.29l-.78-1.65c-.4-.83-.82-1.24-1.28-1.24h-.49V9.07h-1.1V2.19h2a3.17,3.17,0,0,1,1.93.51,1.59,1.59,0,0,1,.68,1.37,1.66,1.66,0,0,1-.48,1.2,2.44,2.44,0,0,1-1.33.67V6c.39.08.79.51,1.18,1.27Zm-3.84-6V5.29h.88c1,0,1.49-.37,1.49-1.11a.94.94,0,0,0-.4-.87,2.71,2.71,0,0,0-1.27-.23Z"/><path class="cls-1" d="M150.29,102.84h0v1.75h-2.06V86.65h2.06v8h0a5,5,0,0,1,4.45-2.42,4.83,4.83,0,0,1,3.88,1.63,6.47,6.47,0,0,1,1.4,4.36,7.2,7.2,0,0,1-1.57,4.87,5.37,5.37,0,0,1-4.3,1.83A4.29,4.29,0,0,1,150.29,102.84Zm0-4.89v1.7a3.5,3.5,0,0,0,1,2.55,3.86,3.86,0,0,0,5.57-.31,5.87,5.87,0,0,0,1.06-3.75,4.7,4.7,0,0,0-1-3.17,3.41,3.41,0,0,0-2.69-1.15A3.76,3.76,0,0,0,151.34,95,4.18,4.18,0,0,0,150.24,98Z"/><path class="cls-1" d="M173.66,99h-9.09a4.33,4.33,0,0,0,1.16,3.12,4.1,4.1,0,0,0,3,1.1,6.59,6.59,0,0,0,4-1.35v1.83a7.85,7.85,0,0,1-4.49,1.16,5.62,5.62,0,0,1-4.29-1.65,6.5,6.5,0,0,1-1.56-4.65A6.39,6.39,0,0,1,164.14,94a5.62,5.62,0,0,1,4.23-1.78,5,5,0,0,1,3.91,1.54A6.18,6.18,0,0,1,173.66,98Zm-2.11-1.65a3.81,3.81,0,0,0-.86-2.61,3,3,0,0,0-2.36-.94,3.43,3.43,0,0,0-2.48,1,4.32,4.32,0,0,0-1.25,2.56Z"/><path class="cls-1" d="M176,104.15v-2.08a6.36,6.36,0,0,0,3.71,1.17c1.81,0,2.71-.56,2.71-1.7a1.44,1.44,0,0,0-.23-.82,2.26,2.26,0,0,0-.63-.6,5,5,0,0,0-.93-.47l-1.15-.43a16.09,16.09,0,0,1-1.5-.64,4.76,4.76,0,0,1-1.08-.74,2.73,2.73,0,0,1-.66-.93,3.2,3.2,0,0,1-.22-1.22,2.71,2.71,0,0,1,.42-1.5,3.4,3.4,0,0,1,1.1-1.1,5.34,5.34,0,0,1,1.58-.67,7.4,7.4,0,0,1,1.83-.23,7.63,7.63,0,0,1,3,.55v2a6.11,6.11,0,0,0-3.27-.88,4.17,4.17,0,0,0-1,.13,2.55,2.55,0,0,0-.8.35,1.63,1.63,0,0,0-.51.54,1.37,1.37,0,0,0-.18.69,1.59,1.59,0,0,0,.18.79,1.89,1.89,0,0,0,.53.57,3.84,3.84,0,0,0,.86.45l1.14.44a14.2,14.2,0,0,1,1.53.63,5.37,5.37,0,0,1,1.16.73,3.14,3.14,0,0,1,.74.94,2.94,2.94,0,0,1,.25,1.27,2.84,2.84,0,0,1-.42,1.56A3.46,3.46,0,0,1,183,104a5.34,5.34,0,0,1-1.62.65,8.16,8.16,0,0,1-1.93.22A7.55,7.55,0,0,1,176,104.15Z"/><path class="cls-1" d="M193.67,104.47a4.07,4.07,0,0,1-1.92.38c-2.26,0-3.38-1.18-3.38-3.55V94.13h-2.22V92.48h2.22v-3l2.06-.63v3.59h3.24v1.65h-3.24V101a2.68,2.68,0,0,0,.44,1.74,1.8,1.8,0,0,0,1.46.52,2.24,2.24,0,0,0,1.34-.4Z"/><path class="cls-1" d="M209.84,88.36a2.94,2.94,0,0,0-1.37-.32c-1.44,0-2.17.85-2.17,2.57v1.87h3v1.65h-3v10.46h-2V94.13h-2.2V92.48h2.2v-2a4,4,0,0,1,1.17-3,4,4,0,0,1,2.91-1.11,4.32,4.32,0,0,1,1.5.22Z"/><path class="cls-1" d="M216.91,104.88a6.16,6.16,0,0,1-4.55-1.7,6.05,6.05,0,0,1-1.71-4.5,6.29,6.29,0,0,1,1.78-4.77,6.56,6.56,0,0,1,4.79-1.72,6,6,0,0,1,4.49,1.67,6.37,6.37,0,0,1,1.61,4.63,6,6,0,0,1-6.41,6.39Zm.15-11.06a4,4,0,0,0-3.14,1.28,5,5,0,0,0-1.15,3.51,4.79,4.79,0,0,0,1.16,3.39,4.1,4.1,0,0,0,3.13,1.24,3.87,3.87,0,0,0,3.08-1.22,5.08,5.08,0,0,0,1.07-3.46,5.18,5.18,0,0,0-1.07-3.5A3.88,3.88,0,0,0,217.06,93.82Z"/><path class="cls-1" d="M233.33,94.44a2.87,2.87,0,0,0-3.76.78,5.13,5.13,0,0,0-.89,3.2v6.17h-2.06V92.48h2.06V95h0a4.22,4.22,0,0,1,1.34-2,3.19,3.19,0,0,1,2-.72,3.55,3.55,0,0,1,1.23.17Z"/><path class="cls-1" d="M252.86,92.48l-5.92,14c-1.05,2.51-2.54,3.77-4.45,3.77a5.07,5.07,0,0,1-1.34-.16V108.4a4.1,4.1,0,0,0,1.22.22,2.51,2.51,0,0,0,2.34-1.76l1-2.29-5-12.09H243l3.48,9.32c0,.12.13.43.26.92h.08c0-.19.12-.49.25-.9l3.66-9.34Z"/><path class="cls-1" d="M260.46,104.88a6.18,6.18,0,0,1-4.56-1.7,6,6,0,0,1-1.7-4.5A6.32,6.32,0,0,1,256,93.91a6.57,6.57,0,0,1,4.79-1.72,6,6,0,0,1,4.49,1.67,6.37,6.37,0,0,1,1.62,4.63,6,6,0,0,1-6.41,6.39Zm.15-11.06a4,4,0,0,0-3.14,1.28,5,5,0,0,0-1.16,3.51,4.75,4.75,0,0,0,1.17,3.39,4.08,4.08,0,0,0,3.13,1.24,3.84,3.84,0,0,0,3.07-1.22,5,5,0,0,0,1.08-3.46,5.13,5.13,0,0,0-1.08-3.5A3.86,3.86,0,0,0,260.61,93.82Z"/><path class="cls-1" d="M280.57,104.59h-2.06v-1.91h-.05a4.3,4.3,0,0,1-4,2.2q-4.61,0-4.61-5.16V92.48h2.05v6.93c0,2.56,1,3.83,3.12,3.83a3.25,3.25,0,0,0,2.48-1,3.86,3.86,0,0,0,1-2.74v-7h2.06Z"/><path class="cls-1" d="M291.44,94.44a2.87,2.87,0,0,0-3.76.78,5.2,5.2,0,0,0-.89,3.2v6.17h-2.06V92.48h2.06V95h0a4.23,4.23,0,0,1,1.35-2,3.16,3.16,0,0,1,2-.72,3.51,3.51,0,0,1,1.23.17Z"/><path class="cls-1" d="M300,104.15v-2.08a6.38,6.38,0,0,0,3.71,1.17c1.81,0,2.72-.56,2.72-1.7a1.37,1.37,0,0,0-.24-.82,2,2,0,0,0-.63-.6,5,5,0,0,0-.93-.47l-1.15-.43a16.09,16.09,0,0,1-1.5-.64,4.76,4.76,0,0,1-1.08-.74,2.57,2.57,0,0,1-.65-.93,3,3,0,0,1-.22-1.22,2.79,2.79,0,0,1,.41-1.5,3.53,3.53,0,0,1,1.11-1.1,5.23,5.23,0,0,1,1.58-.67,7.4,7.4,0,0,1,1.83-.23,7.66,7.66,0,0,1,3,.55v2a6.15,6.15,0,0,0-3.27-.88,4.11,4.11,0,0,0-1,.13,2.55,2.55,0,0,0-.8.35,1.57,1.57,0,0,0-.52.54,1.37,1.37,0,0,0-.18.69,1.59,1.59,0,0,0,.18.79,1.81,1.81,0,0,0,.54.57,3.76,3.76,0,0,0,.85.45l1.14.44a14.41,14.41,0,0,1,1.54.63,5.28,5.28,0,0,1,1.15.73,3,3,0,0,1,.74.94,2.94,2.94,0,0,1,.26,1.27,2.84,2.84,0,0,1-.42,1.56,3.5,3.5,0,0,1-1.13,1.1,5.34,5.34,0,0,1-1.62.65,8,8,0,0,1-1.92.22A7.57,7.57,0,0,1,300,104.15Z"/><path class="cls-1" d="M329.93,104.59h-2.06v-7a5,5,0,0,0-.66-2.92,2.57,2.57,0,0,0-2.22-.9A2.79,2.79,0,0,0,322.75,95a4.17,4.17,0,0,0-.92,2.72v6.91h-2.07V97.4c0-2.38-1-3.58-2.93-3.58a2.75,2.75,0,0,0-2.23,1.08,4.21,4.21,0,0,0-.88,2.78v6.91h-2.06V92.48h2.06v1.91h0a4.42,4.42,0,0,1,4-2.2,3.94,3.94,0,0,1,2.31.69,3.52,3.52,0,0,1,1.34,1.82,4.64,4.64,0,0,1,4.27-2.51c2.84,0,4.25,1.65,4.25,4.94Z"/><path class="cls-1" d="M334.89,89.4a1.36,1.36,0,0,1-.95-.36,1.14,1.14,0,0,1-.39-.89,1.18,1.18,0,0,1,.39-.91,1.36,1.36,0,0,1,.95-.36,1.4,1.4,0,0,1,1,.36,1.18,1.18,0,0,1,.39.91,1.16,1.16,0,0,1-.39.88A1.36,1.36,0,0,1,334.89,89.4Zm1,15.19h-2.06V92.48h2.06Z"/><path class="cls-1" d="M342.13,104.59h-2.07V86.65h2.07Z"/><path class="cls-1" d="M356.64,99h-9.08a4.37,4.37,0,0,0,1.15,3.12,4.1,4.1,0,0,0,3,1.1,6.57,6.57,0,0,0,4-1.35v1.83a7.85,7.85,0,0,1-4.49,1.16,5.61,5.61,0,0,1-4.28-1.65,6.5,6.5,0,0,1-1.56-4.65,6.43,6.43,0,0,1,1.7-4.61,5.66,5.66,0,0,1,4.23-1.78,5,5,0,0,1,3.91,1.54A6.18,6.18,0,0,1,356.64,98Zm-2.11-1.65a3.76,3.76,0,0,0-.86-2.61,3,3,0,0,0-2.36-.94,3.41,3.41,0,0,0-2.47,1,4.34,4.34,0,0,0-1.26,2.56Z"/></g></g></svg>