<?xml version="1.0" encoding="UTF-8"?>
<!DOCTYPE svg PUBLIC "-//W3C//DTD SVG 1.1//EN" "http://www.w3.org/Graphics/SVG/1.1/DTD/svg11.dtd">
<!-- Creator: CorelDRAW 2019 (64-Bit) -->
<svg xmlns="http://www.w3.org/2000/svg" xml:space="preserve" width="43.0485in" height="14.4369in" version="1.1" style="shape-rendering:geometricPrecision; text-rendering:geometricPrecision; image-rendering:optimizeQuality; fill-rule:evenodd; clip-rule:evenodd"
viewBox="0 0 21928.15 7353.88"
 xmlns:xlink="http://www.w3.org/1999/xlink"
 xmlns:xodm="http://www.corel.com/coreldraw/odm/2003">
 <defs>
  <style type="text/css">
   <![CDATA[
    .fil2 {fill:#FEFEFE;fill-rule:nonzero}
    .fil1 {fill:#96989A;fill-rule:nonzero}
    .fil0 {fill:#105582;fill-rule:nonzero}
   ]]>
  </style>
 </defs>
 <g id="Layer_x0020_1">
  <metadata id="CorelCorpID_0Corel-Layer"/>
  <path class="fil0" d="M21237.21 5548.12l-2704.11 1561.21 -2704.03 -1561.21 0 -2733.11 894.82 -502.26 0 2718.76 1809.21 1044.59 1809.3 -1044.59 0 -2718.76 894.81 502.26 0 2733.11zm-2704.06 -5548.12l-3395.01 1960.11 0 3920.22 1700.38 981.71 0 -487.61 1696.38 979.44 1692.88 -977.37 0 485.53 1700.37 -981.71 0 -3920.22 -3395.01 -1960.11z"/>
  <polygon class="fil1" points="13359.55,3202.69 13110.67,4614.09 11847.43,4614.09 12096.3,3202.69 9691.92,3202.69 9461.17,4511.51 6248.72,4511.51 6581.58,2623.6 3894.82,2623.6 3591.1,4345.93 4359.61,4345.93 4527.64,3392.91 5677.39,3392.91 5344.53,5280.82 10094,5280.82 10324.74,3972 11192.11,3972 10943.24,5383.39 13743.5,5383.39 14128.05,3202.69 "/>
  <polygon class="fil0" points="4699.89,3565.61 4531.75,4518.92 3365.97,4518.92 4035.51,721.97 3267,721.97 2461.79,5288.23 5164.58,5288.23 5468.39,3565.61 "/>
  <polygon class="fil0" points="1990.58,2642.44 1659.67,4518.92 135.68,4518.92 -0,5288.23 2292.5,5288.23 2759.08,2642.44 "/>
  <polygon class="fil1" points="10447.25,4121.65 10138.03,5875.33 10701.38,5875.33 11010.61,4121.65 "/>
  <polygon class="fil0" points="3789.59,5451.91 3690.07,6016.06 5032.65,6016.06 5132.17,5451.91 "/>
  <polygon class="fil1" points="13221.16,6177.14 12895.31,5781.57 12255.07,6325.79 11806.76,5781.57 11333.96,6183.55 12108.12,7123.45 "/>
  <polygon class="fil1" points="8060.54,3552.18 8508.86,4096.51 8981.66,3694.42 8207.54,2754.52 7094.5,3700.84 7420.31,4096.51 "/>
  <path class="fil2" d="M21237.21 5548.12l-2704.11 1561.21 -2704.03 -1561.21 0 -2733.11 894.82 -502.26 0 2718.76 1809.21 1044.59 1809.3 -1044.59 0 -2718.76 894.81 502.26 0 2733.11zm-2704.06 -5548.12l-3395.01 1960.11 0 3920.22 1700.38 981.71 0 -487.61 1696.38 979.44 1692.88 -977.37 0 485.53 1700.37 -981.71 0 -3920.22 -3395.01 -1960.11z"/>
  <polygon class="fil2" points="13359.55,3202.69 13110.67,4614.09 11847.43,4614.09 12096.3,3202.69 9691.92,3202.69 9461.17,4511.51 6248.72,4511.51 6581.58,2623.6 3894.82,2623.6 3591.1,4345.93 4359.61,4345.93 4527.64,3392.91 5677.39,3392.91 5344.53,5280.82 10094,5280.82 10324.74,3972 11192.11,3972 10943.24,5383.39 13743.5,5383.39 14128.05,3202.69 "/>
  <polygon class="fil2" points="4699.89,3565.61 4531.75,4518.92 3365.97,4518.92 4035.51,721.97 3267,721.97 2461.79,5288.23 5164.58,5288.23 5468.39,3565.61 "/>
  <polygon class="fil2" points="1990.58,2642.44 1659.67,4518.92 135.68,4518.92 -0,5288.23 2292.5,5288.23 2759.08,2642.44 "/>
  <polygon class="fil2" points="10447.25,4121.65 10138.03,5875.33 10701.38,5875.33 11010.61,4121.65 "/>
  <polygon class="fil2" points="3789.59,5451.91 3690.07,6016.06 5032.65,6016.06 5132.17,5451.91 "/>
  <polygon class="fil2" points="13221.16,6177.14 12895.31,5781.57 12255.07,6325.79 11806.76,5781.57 11333.96,6183.55 12108.12,7123.45 "/>
  <polygon class="fil2" points="8060.54,3552.18 8508.86,4096.51 8981.66,3694.42 8207.54,2754.52 7094.5,3700.84 7420.31,4096.51 "/>
  <path class="fil2" d="M21237.21 5548.12l-2704.11 1561.21 -2704.03 -1561.21 0 -2733.11 894.82 -502.26 0 2718.76 1809.21 1044.59 1809.3 -1044.59 0 -2718.76 894.81 502.26 0 2733.11zm-2704.06 -5548.12l-3395.01 1960.11 0 3920.22 1700.38 981.71 0 -487.61 1696.38 979.44 1692.88 -977.37 0 485.53 1700.37 -981.71 0 -3920.22 -3395.01 -1960.11z"/>
  <polygon class="fil2" points="13359.55,3202.69 13110.67,4614.09 11847.43,4614.09 12096.3,3202.69 9691.92,3202.69 9461.17,4511.51 6248.72,4511.51 6581.58,2623.6 3894.82,2623.6 3591.1,4345.93 4359.61,4345.93 4527.64,3392.91 5677.39,3392.91 5344.53,5280.82 10094,5280.82 10324.74,3972 11192.11,3972 10943.24,5383.39 13743.5,5383.39 14128.05,3202.69 "/>
  <polygon class="fil2" points="4699.89,3565.61 4531.75,4518.92 3365.97,4518.92 4035.51,721.97 3267,721.97 2461.79,5288.23 5164.58,5288.23 5468.39,3565.61 "/>
  <polygon class="fil2" points="1990.58,2642.44 1659.67,4518.92 135.68,4518.92 -0,5288.23 2292.5,5288.23 2759.08,2642.44 "/>
  <polygon class="fil2" points="10447.25,4121.65 10138.03,5875.33 10701.38,5875.33 11010.61,4121.65 "/>
  <polygon class="fil2" points="3789.59,5451.91 3690.07,6016.06 5032.65,6016.06 5132.17,5451.91 "/>
  <polygon class="fil2" points="13221.16,6177.14 12895.31,5781.57 12255.07,6325.79 11806.76,5781.57 11333.96,6183.55 12108.12,7123.45 "/>
  <polygon class="fil2" points="8060.54,3552.18 8508.86,4096.51 8981.66,3694.42 8207.54,2754.52 7094.5,3700.84 7420.31,4096.51 "/>
  <path class="fil0" d="M21237.21 5548.12l-2704.11 1561.21 -2704.03 -1561.21 0 -2733.11 894.82 -502.26 0 2718.76 1809.21 1044.59 1809.3 -1044.59 0 -2718.76 894.81 502.26 0 2733.11zm-2704.06 -5548.12l-3395.01 1960.11 0 3920.22 1700.38 981.71 0 -487.61 1696.38 979.44 1692.88 -977.37 0 485.53 1700.37 -981.71 0 -3920.22 -3395.01 -1960.11z"/>
  <polygon class="fil0" points="13359.55,3202.69 13110.67,4614.09 11847.43,4614.09 12096.3,3202.69 9691.92,3202.69 9461.17,4511.51 6248.72,4511.51 6581.58,2623.6 3894.82,2623.6 3591.1,4345.93 4359.61,4345.93 4527.64,3392.91 5677.39,3392.91 5344.53,5280.82 10094,5280.82 10324.74,3972 11192.11,3972 10943.24,5383.39 13743.5,5383.39 14128.05,3202.69 "/>
  <polygon class="fil0" points="4699.89,3565.61 4531.75,4518.92 3365.97,4518.92 4035.51,721.97 3267,721.97 2461.79,5288.23 5164.58,5288.23 5468.39,3565.61 "/>
  <polygon class="fil0" points="1990.58,2642.44 1659.67,4518.92 135.68,4518.92 -0,5288.23 2292.5,5288.23 2759.08,2642.44 "/>
  <polygon class="fil0" points="10447.25,4121.65 10138.03,5875.33 10701.38,5875.33 11010.61,4121.65 "/>
  <polygon class="fil0" points="3789.59,5451.91 3690.07,6016.06 5032.65,6016.06 5132.17,5451.91 "/>
  <polygon class="fil0" points="13221.16,6177.14 12895.31,5781.57 12255.07,6325.79 11806.76,5781.57 11333.96,6183.55 12108.12,7123.45 "/>
  <polygon class="fil0" points="8060.54,3552.18 8508.86,4096.51 8981.66,3694.42 8207.54,2754.52 7094.5,3700.84 7420.31,4096.51 "/>
 </g>
</svg>
