<?xml version="1.0" encoding="UTF-8"?>
<!DOCTYPE svg PUBLIC "-//W3C//DTD SVG 1.1//EN" "http://www.w3.org/Graphics/SVG/1.1/DTD/svg11.dtd">
<!-- Creator: CorelDRAW 2019 (64-Bit) -->
<svg xmlns="http://www.w3.org/2000/svg" xml:space="preserve" width="43.0485in" height="14.4369in" version="1.1" style="shape-rendering:geometricPrecision; text-rendering:geometricPrecision; image-rendering:optimizeQuality; fill-rule:evenodd; clip-rule:evenodd"
viewBox="0 0 16103.08 5400.37"
 xmlns:xlink="http://www.w3.org/1999/xlink"
 xmlns:xodm="http://www.corel.com/coreldraw/odm/2003">
 <defs>
  <style type="text/css">
   <![CDATA[
    .fil0 {fill:#FEFEFE;fill-rule:nonzero}
   ]]>
  </style>
 </defs>
 <g id="Layer_x0020_1">
  <metadata id="CorelCorpID_0Corel-Layer"/>
  <g id="_2500698533680">
   <path class="fil0" d="M15595.68 4074.29l-1985.78 1146.48 -1985.72 -1146.48 0 -2007.08 657.12 -368.84 0 1996.54 1328.6 767.1 1328.67 -767.1 0 -1996.54 657.11 368.84 0 2007.08zm-1985.75 -4074.29l-2493.15 1439.42 0 2878.84 1248.69 720.93 0 -358.08 1245.75 719.26 1243.18 -717.74 0 356.55 1248.68 -720.92 0 -2878.84 -2493.14 -1439.42z"/>
   <polygon class="fil0" points="9810.67,2351.91 9627.9,3388.38 8700.24,3388.38 8882.99,2351.91 7117.32,2351.91 6947.87,3313.06 4588.78,3313.06 4833.23,1926.66 2860.18,1926.66 2637.15,3191.46 3201.51,3191.46 3324.9,2491.61 4169.23,2491.61 3924.79,3878 7412.59,3878 7582.04,2916.86 8219,2916.86 8036.24,3953.33 10092.63,3953.33 10375.02,2351.91 "/>
   <polygon class="fil0" points="3451.39,2618.42 3327.92,3318.5 2471.82,3318.5 2963.5,530.18 2399.14,530.18 1807.83,3883.44 3792.64,3883.44 4015.74,2618.42 "/>
   <polygon class="fil0" points="1461.8,1940.49 1218.79,3318.5 99.64,3318.5 -0,3883.45 1683.51,3883.45 2026.15,1940.49 "/>
   <polygon class="fil0" points="7672,3026.76 7444.92,4314.58 7858.63,4314.58 8085.71,3026.76 "/>
   <polygon class="fil0" points="2782.91,4003.64 2709.83,4417.93 3695.76,4417.93 3768.84,4003.64 "/>
   <polygon class="fil0" points="9709.04,4536.22 9469.75,4245.73 8999.59,4645.38 8670.37,4245.73 8323.16,4540.93 8891.67,5231.15 "/>
   <polygon class="fil0" points="5919.31,2608.57 6248.53,3008.29 6595.74,2713.02 6027.26,2022.8 5209.89,2717.73 5449.15,3008.29 "/>
  </g>
 </g>
</svg>
